<?xml version="1.0" encoding="UTF-8"?>
<svg id="_图层_1" data-name="图层 1" xmlns="http://www.w3.org/2000/svg" viewBox="0 0 49.83 41.52">
  <defs>
    <style>
      .cls-1 {
        fill: #965a00;
      }

      .cls-2 {
        fill: #56b42d;
      }
    </style>
  </defs>
  <path class="cls-1" d="M11.06,37.63c-1.1,.21-1.72,.31-1.88,.31-3,0-5.29-.86-6.85-2.58-1.56-1.72-2.33-4.24-2.33-7.56V9.79C0,6.58,.78,4.16,2.35,2.5,3.94,.83,6.21,0,9.19,0s5.26,.83,6.83,2.5c1.57,1.66,2.35,4.08,2.35,7.29V27.79c0,3.06-.69,5.48-2.06,7.27l3.21,2.04-2.52,4.42-5.94-3.9Zm-1.88-6.54c.72,0,1.18-.34,1.38-1.04,.21-.69,.31-1.59,.31-2.69V9.92c0-.94-.13-1.69-.38-2.23-.24-.55-.69-.83-1.35-.83-1.18,0-1.77,1.01-1.77,3.02V27.48c0,1.04,.11,1.91,.33,2.58,.23,.68,.73,1.02,1.48,1.02Z"/>
  <path class="cls-2" d="M20.94,37.58L24.55,.33h12.63l3.54,37.25h-7.06l-.52-6.02h-4.5l-.44,6.02h-7.25Zm8.25-11.96h3.38l-1.65-18.96h-.35l-1.38,18.96Z"/>
  <path class="cls-2" d="M42.62,37.58V.33h7.21V37.58h-7.21Z"/>
</svg>